# xmcd CD database file
#
# Track frame offsets:
#	150
#	18371
#	65601
#	124067
#	150325
#	193116
#	241562
#
# Disc length: 3915 seconds
#
# Revision: 2
# Processed by: cddbd v1.5.2PL0 Copyright (c) Steve Scherf et al.
# Submitted via: CDex 1.50
#
DISCID=4e0f4907
DTITLE=Donna Leon - 19 - Auf Treu und Glauben CD05
DYEAR=2011
DGENRE=Hörbuch
TTITLE0=501
TTITLE1=502
TTITLE2=503
TTITLE3=504
TTITLE4=505
TTITLE5=506
TTITLE6=507
EXTD=YEAR: 2011
EXTT0=
EXTT1=
EXTT2=
EXTT3=
EXTT4=
EXTT5=
EXTT6=
PLAYORDER=
